<svg xmlns="http://www.w3.org/2000/svg" width="1056.2408447265625" height="463.7359313964844" viewBox="-1004.5556640625 -195.48403930664062 1056.2408447265625 463.7359313964844"><title>Neo4j Graph Visualization</title><desc>Created using Neo4j (http://www.neo4j.com/)</desc><g class="layer relationships"><g class="relationship" transform="translate(-820.4612296222002 32.004213086510106) rotate(210.48270045406662)"><path class="outline" fill="#A5ABB6" stroke="none" d="M 40 0.5 L 47.78180079417295 0.5 L 47.78180079417295 -0.5 L 40 -0.5 Z M 107.78180079417295 0.5 L 115.5636015883459 0.5 L 115.5636015883459 3.5 L 122.5636015883459 0 L 115.5636015883459 -3.5 L 115.5636015883459 -0.5 L 107.78180079417295 -0.5 Z"/><text text-anchor="middle" pointer-events="none" font-size="8px" fill="#000000" x="77.78180079417295" y="3" transform="rotate(180 77.78180079417295 0)" font-family="sans-serif">DEPENDS_ON</text></g><g class="relationship" transform="translate(-690.5077684341611 -48.35977876354612) rotate(180.44575305080127)"><path class="outline" fill="#A5ABB6" stroke="none" d="M 40 0.5 L 101.52803940080082 0.5 L 101.52803940080082 -0.5 L 40 -0.5 Z M 161.52803940080082 0.5 L 223.05607880160164 0.5 L 223.05607880160164 3.5 L 230.05607880160164 0 L 223.05607880160164 -3.5 L 223.05607880160164 -0.5 L 161.52803940080082 -0.5 Z"/><text text-anchor="middle" pointer-events="none" font-size="8px" fill="#000000" x="131.52803940080082" y="3" transform="rotate(180 131.52803940080082 0)" font-family="sans-serif">DEPENDS_ON</text></g><g class="relationship" transform="translate(-690.5077684341611 -48.35977876354612) rotate(508.26710734839725)"><path class="outline" fill="#A5ABB6" stroke="none" d="M 40 0.5 L 42.89743657484047 0.5 L 42.89743657484047 -0.5 L 40 -0.5 Z M 102.89743657484047 0.5 L 105.79487314968094 0.5 L 105.79487314968094 3.5 L 112.79487314968094 0 L 105.79487314968094 -3.5 L 105.79487314968094 -0.5 L 102.89743657484047 -0.5 Z"/><text text-anchor="middle" pointer-events="none" font-size="8px" fill="#000000" x="72.89743657484047" y="3" transform="rotate(180 72.89743657484047 0)" font-family="sans-serif">DEPENDS_ON</text></g><g class="relationship" transform="translate(-690.5077684341611 -48.35977876354612) rotate(209.45256320449914)"><path class="outline" fill="#A5ABB6" stroke="none" d="M 40 0.5 L 43.99463080741582 0.5 L 43.99463080741582 -0.5 L 40 -0.5 Z M 103.99463080741582 0.5 L 107.98926161483163 0.5 L 107.98926161483163 3.5 L 114.98926161483163 0 L 107.98926161483163 -3.5 L 107.98926161483163 -0.5 L 103.99463080741582 -0.5 Z"/><text text-anchor="middle" pointer-events="none" font-size="8px" fill="#000000" x="73.99463080741582" y="3" transform="rotate(180 73.99463080741582 0)" font-family="sans-serif">DEPENDS_ON</text></g><g class="relationship" transform="translate(-347.72442510620704 -151.48404442970264) rotate(523.2564083960647)"><path class="outline" fill="#A5ABB6" stroke="none" d="M 40 0.5 L 145.47977164492227 0.5 L 145.47977164492227 -0.5 L 40 -0.5 Z M 205.47977164492227 0.5 L 310.95954328984453 0.5 L 310.95954328984453 3.5 L 317.95954328984453 0 L 310.95954328984453 -3.5 L 310.95954328984453 -0.5 L 205.47977164492227 -0.5 Z"/><text text-anchor="middle" pointer-events="none" font-size="8px" fill="#000000" x="175.47977164492227" y="3" transform="rotate(180 175.47977164492227 0)" font-family="sans-serif">DEPENDS_ON</text></g><g class="relationship" transform="translate(-612.1227016073262 152.75698200722525) rotate(248.706697494629)"><path class="outline" fill="#A5ABB6" stroke="none" d="M 40 0.5 L 74.42609759040563 0.5 L 74.42609759040563 -0.5 L 40 -0.5 Z M 134.42609759040562 0.5 L 168.85219518081126 0.5 L 168.85219518081126 3.5 L 175.85219518081126 0 L 168.85219518081126 -3.5 L 168.85219518081126 -0.5 L 134.42609759040562 -0.5 Z"/><text text-anchor="middle" pointer-events="none" font-size="8px" fill="#000000" x="104.42609759040563" y="3" transform="rotate(180 104.42609759040563 0)" font-family="sans-serif">DEPENDS_ON</text></g><g class="relationship" transform="translate(-387.56470611897635 -62.290012400384995) rotate(537.3672222098799)"><path class="outline" fill="#A5ABB6" stroke="none" d="M 40 0.5 L 118.13158511180876 0.5 L 118.13158511180876 -0.5 L 40 -0.5 Z M 178.13158511180876 0.5 L 256.2631702236175 0.5 L 256.2631702236175 3.5 L 263.2631702236175 0 L 256.2631702236175 -3.5 L 256.2631702236175 -0.5 L 178.13158511180876 -0.5 Z"/><text text-anchor="middle" pointer-events="none" font-size="8px" fill="#000000" x="148.13158511180876" y="3" transform="rotate(180 148.13158511180876 0)" font-family="sans-serif">DEPENDS_ON</text></g><g class="relationship" transform="translate(-488.55594438697506 80.42134715588298) rotate(212.52494123845702)"><path class="outline" fill="#A5ABB6" stroke="none" d="M 40 0.5 L 86.25925604004627 0.5 L 86.25925604004627 -0.5 L 40 -0.5 Z M 146.25925604004627 0.5 L 192.51851208009253 0.5 L 192.51851208009253 3.5 L 199.51851208009253 0 L 192.51851208009253 -3.5 L 192.51851208009253 -0.5 L 146.25925604004627 -0.5 Z"/><text text-anchor="middle" pointer-events="none" font-size="8px" fill="#000000" x="116.25925604004627" y="3" transform="rotate(180 116.25925604004627 0)" font-family="sans-serif">DEPENDS_ON</text></g><g class="relationship" transform="translate(-194.0075012055016 21.665188749612454) rotate(188.0278823518737)"><path class="outline" fill="#A5ABB6" stroke="none" d="M 40 0.5 L 217.2070060017017 0.5 L 217.2070060017017 -0.5 L 40 -0.5 Z M 277.2070060017017 0.5 L 454.4140120034034 0.5 L 454.4140120034034 3.5 L 461.4140120034034 0 L 454.4140120034034 -3.5 L 454.4140120034034 -0.5 L 277.2070060017017 -0.5 Z"/><text text-anchor="middle" pointer-events="none" font-size="8px" fill="#000000" x="247.2070060017017" y="3" transform="rotate(180 247.2070060017017 0)" font-family="sans-serif">DEPENDS_ON</text></g><g class="relationship" transform="translate(7.6852119152366924 21.404177358859044) rotate(205.9405012332445)"><path class="outline" fill="#A5ABB6" stroke="none" d="M 40 0.5 L 164.1147434535979 0.5 L 164.1147434535979 -0.5 L 40 -0.5 Z M 224.1147434535979 0.5 L 348.2294869071958 0.5 L 348.2294869071958 3.5 L 355.2294869071958 0 L 348.2294869071958 -3.5 L 348.2294869071958 -0.5 L 224.1147434535979 -0.5 Z"/><text text-anchor="middle" pointer-events="none" font-size="8px" fill="#000000" x="194.1147434535979" y="3" transform="rotate(180 194.1147434535979 0)" font-family="sans-serif">DEPENDS_ON</text></g><g class="relationship" transform="translate(-194.0075012055016 21.665188749612454) rotate(203.44872991654103)"><path class="outline" fill="#A5ABB6" stroke="none" d="M 40 0.5 L 71.99036374718473 0.5 L 71.99036374718473 -0.5 L 40 -0.5 Z M 131.99036374718474 0.5 L 163.98072749436946 0.5 L 163.98072749436946 3.5 L 170.98072749436946 0 L 163.98072749436946 -3.5 L 163.98072749436946 -0.5 L 131.99036374718474 -0.5 Z"/><text text-anchor="middle" pointer-events="none" font-size="8px" fill="#000000" x="101.99036374718473" y="3" transform="rotate(180 101.99036374718473 0)" font-family="sans-serif">DEPENDS_ON</text></g><g class="relationship" transform="translate(-488.55594438697506 80.42134715588298) rotate(509.6554130732295)"><path class="outline" fill="#A5ABB6" stroke="none" d="M 40 0.5 L 40.091178854835064 0.5 L 40.091178854835064 -0.5 L 40 -0.5 Z M 96.09117885483506 0.5 L 96.18235770967013 0.5 L 96.18235770967013 3.5 L 103.18235770967013 0 L 96.18235770967013 -3.5 L 96.18235770967013 -0.5 L 96.09117885483506 -0.5 Z"/><text text-anchor="middle" pointer-events="none" font-size="8px" fill="#000000" x="68.09117885483506" y="3" transform="rotate(180 68.09117885483506 0)" font-family="sans-serif">DEPENDS_…</text></g><g class="relationship" transform="translate(-329.77352017429274 151.82187994060388) rotate(539.8102448688753)"><path class="outline" fill="#A5ABB6" stroke="none" d="M 40 0.5 L 107.67536494709256 0.5 L 107.67536494709256 -0.5 L 40 -0.5 Z M 167.67536494709256 0.5 L 235.35072989418512 0.5 L 235.35072989418512 3.5 L 242.35072989418512 0 L 235.35072989418512 -3.5 L 235.35072989418512 -0.5 L 167.67536494709256 -0.5 Z"/><text text-anchor="middle" pointer-events="none" font-size="8px" fill="#000000" x="137.67536494709256" y="3" transform="rotate(180 137.67536494709256 0)" font-family="sans-serif">DEPENDS_ON</text></g><g class="relationship" transform="translate(-329.77352017429274 151.82187994060388) rotate(204.2122719490011)"><path class="outline" fill="#A5ABB6" stroke="none" d="M 40 0.5 L 53.548685114707794 0.5 L 53.548685114707794 -0.5 L 40 -0.5 Z M 113.5486851147078 0.5 L 127.09737022941559 0.5 L 127.09737022941559 3.5 L 134.0973702294156 0 L 127.09737022941559 -3.5 L 127.09737022941559 -0.5 L 113.5486851147078 -0.5 Z"/><text text-anchor="middle" pointer-events="none" font-size="8px" fill="#000000" x="83.5486851147078" y="3" transform="rotate(180 83.5486851147078 0)" font-family="sans-serif">DEPENDS_ON</text></g><g class="relationship" transform="translate(-329.77352017429274 151.82187994060388) rotate(516.0077479302704)"><path class="outline" fill="#A5ABB6" stroke="none" d="M 40 0.5 L 55.565037556011916 0.5 L 55.565037556011916 -0.5 L 40 -0.5 Z M 115.56503755601192 0.5 L 131.13007511202383 0.5 L 131.13007511202383 3.5 L 138.13007511202383 0 L 131.13007511202383 -3.5 L 131.13007511202383 -0.5 L 115.56503755601192 -0.5 Z"/><text text-anchor="middle" pointer-events="none" font-size="8px" fill="#000000" x="85.56503755601192" y="3" transform="rotate(180 85.56503755601192 0)" font-family="sans-serif">DEPENDS_ON</text></g><g class="relationship" transform="translate(-194.0075012055016 21.665188749612454) rotate(496.20840808419894)"><path class="outline" fill="#A5ABB6" stroke="none" d="M 40 0.5 L 60.538790092734146 0.5 L 60.538790092734146 -0.5 L 40 -0.5 Z M 120.53879009273415 0.5 L 141.0775801854683 0.5 L 141.0775801854683 3.5 L 148.0775801854683 0 L 141.0775801854683 -3.5 L 141.0775801854683 -0.5 L 120.53879009273415 -0.5 Z"/><text text-anchor="middle" pointer-events="none" font-size="8px" fill="#000000" x="90.53879009273415" y="3" transform="rotate(180 90.53879009273415 0)" font-family="sans-serif">DEPENDS_ON</text></g><g class="relationship" transform="translate(7.6852119152366924 21.404177358859044) rotate(539.9258533314601)"><path class="outline" fill="#A5ABB6" stroke="none" d="M 40 0.5 L 67.34644100431922 0.5 L 67.34644100431922 -0.5 L 40 -0.5 Z M 127.34644100431922 0.5 L 154.69288200863843 0.5 L 154.69288200863843 3.5 L 161.69288200863843 0 L 154.69288200863843 -3.5 L 154.69288200863843 -0.5 L 127.34644100431922 -0.5 Z"/><text text-anchor="middle" pointer-events="none" font-size="8px" fill="#000000" x="97.34644100431922" y="3" transform="rotate(180 97.34644100431922 0)" font-family="sans-serif">DEPENDS_ON</text></g></g><g class="layer nodes"><g class="node selected" transform="translate(-960.5556745433354,-50.46075561907716)"><circle class="outline" cx="0" cy="0" r="40" fill="#6DCE9E" stroke="#60B58B" stroke-width="2px"/><text text-anchor="middle" pointer-events="none" y="5" font-size="10px" fill="#FFFFFF" font-family="sans-serif"> :compileJava</text></g><g class="node" transform="translate(-820.4612296222002,32.004213086510106)"><circle class="outline" cx="0" cy="0" r="40" fill="#6DCE9E" stroke="#60B58B" stroke-width="2px"/><text text-anchor="middle" pointer-events="none" y="5" font-size="10px" fill="#FFFFFF" font-family="sans-serif"> :compileGroovy</text></g><g class="node" transform="translate(-825.4666966365194,-124.56843256599447)"><circle class="outline" cx="0" cy="0" r="40" fill="#6DCE9E" stroke="#60B58B" stroke-width="2px"/><text text-anchor="middle" pointer-events="none" y="5" font-size="10px" fill="#FFFFFF" font-family="sans-serif"> :processResou…</text></g><g class="node" transform="translate(-690.5077684341611,-48.35977876354612)"><circle class="outline" cx="0" cy="0" r="40" fill="#6DCE9E" stroke="#60B58B" stroke-width="2px"/><text text-anchor="middle" pointer-events="none" y="5" font-size="10px" fill="#FFFFFF" font-family="sans-serif"> :classes</text></g><g class="node" transform="translate(-347.72442510620704,-151.48404442970264)"><circle class="outline" cx="0" cy="0" r="40" fill="#6DCE9E" stroke="#60B58B" stroke-width="2px"/><text text-anchor="middle" pointer-events="none" y="5" font-size="10px" fill="#FFFFFF" font-family="sans-serif"> :jar</text></g><g class="node" transform="translate(-387.56470611897635,-62.290012400384995)"><circle class="outline" cx="0" cy="0" r="40" fill="#6DCE9E" stroke="#60B58B" stroke-width="2px"/><text text-anchor="middle" pointer-events="none" y="5" font-size="10px" fill="#FFFFFF" font-family="sans-serif"> :createClasspa…</text></g><g class="node" transform="translate(-612.1227016073262,152.75698200722525)"><circle class="outline" cx="0" cy="0" r="40" fill="#6DCE9E" stroke="#60B58B" stroke-width="2px"/><text text-anchor="middle" pointer-events="none" y="5" font-size="10px" fill="#FFFFFF" font-family="sans-serif"> :compileTestJa…</text></g><g class="node" transform="translate(-488.55594438697506,80.42134715588298)"><circle class="outline" cx="0" cy="0" r="40" fill="#6DCE9E" stroke="#60B58B" stroke-width="2px"/><text text-anchor="middle" pointer-events="none" y="5" font-size="10px" fill="#FFFFFF" font-family="sans-serif"> :compileTestGr…</text></g><g class="node" transform="translate(-492.51323713729766,224.25190259845135)"><circle class="outline" cx="0" cy="0" r="40" fill="#6DCE9E" stroke="#60B58B" stroke-width="2px"/><text text-anchor="middle" pointer-events="none" y="5" font-size="10px" fill="#FFFFFF" font-family="sans-serif"> :processTestR…</text></g><g class="node" transform="translate(-329.77352017429274,151.82187994060388)"><circle class="outline" cx="0" cy="0" r="40" fill="#6DCE9E" stroke="#60B58B" stroke-width="2px"/><text text-anchor="middle" pointer-events="none" y="5" font-size="10px" fill="#FFFFFF" font-family="sans-serif"> :testClasses</text></g><g class="node" transform="translate(-194.0075012055016,21.665188749612454)"><circle class="outline" cx="0" cy="0" r="40" fill="#FF756E" stroke="#E06760" stroke-width="2px"/><text text-anchor="middle" pointer-events="none" y="5" font-size="10px" fill="#FFFFFF" font-family="sans-serif"> :test</text></g><g class="node" transform="translate(7.6852119152366924,21.404177358859044)"><circle class="outline" cx="0" cy="0" r="40" fill="#FFD86E" stroke="#EDBA39" stroke-width="2px"/><text text-anchor="middle" pointer-events="none" y="5" font-size="10px" fill="#604A0E" font-family="sans-serif"> :uploadArchives</text></g></g></svg>